# xmcd
#
# Track frame offsets:
#  150
#  15655
#  29560
#  41202
#  54175
#  70365
#  85352
#  98097
#  111162
#  122220
#  136687
#  148302
#  162700
#
# Disc length: 2314 seconds
#
# Revision: 0
# Processed by: cddbd v1.5.1PL2 Copyright (c) Steve Scherf et al.
# Submitted via: Collectorz.com Music Collector 6.9
#
DISCID=bd09080d
DTITLE=Magnificent Seven - Live
DYEAR=1900
DGENRE=
TTITLE0=Ghost Riders In The Sky
TTITLE1=Hello Mary Lou
TTITLE2=King Of The Road
TTITLE3=I Love A Rainy Night
TTITLE4=Country Boy
TTITLE5=Everybody's Talking
TTITLE6=Rawhide
TTITLE7=Diesel Smoke
TTITLE8=Long Tall Texan
TTITLE9=Momma Don't Allow
TTITLE10=Rattled
TTITLE11=Folsom Prison Blues
TTITLE12=Viva Las Vegas
EXTD=
EXTT0=
EXTT1=
EXTT2=
EXTT3=
EXTT4=
EXTT5=
EXTT6=
EXTT7=
EXTT8=
EXTT9=
EXTT10=
EXTT11=
EXTT12=
PLAYORDER=
